<svg width="200" height="200" viewBox="0 0 200 200" fill="none" xmlns="http://www.w3.org/2000/svg">
<g clip-path="url(#clip0_401_2)">
<path d="M100 180C144.183 180 180 144.183 180 100C180 55.8172 144.183 20 100 20C55.8172 20 20 55.8172 20 100C20 144.183 55.8172 180 100 180Z" fill="#3B82F6"/>
<path d="M130 60V140L70 100L130 60Z" fill="#93C5FD"/>
<path d="M110 90V110L90 100L110 90Z" fill="#60A5FA"/>
<path d="M90 80V120L110 100L90 80Z" fill="#2563EB"/>
<path d="M53.0472 149V131.545H63.5131V133.42H55.1609V139.318H62.729V141.193H55.1609V149H53.0472ZM71.2177 149.273C70.0359 149.273 68.9989 148.991 68.1069 148.429C67.2205 147.866 66.5273 147.08 66.0273 146.068C65.533 145.057 65.2859 143.875 65.2859 142.523C65.2859 141.159 65.533 139.969 66.0273 138.952C66.5273 137.935 67.2205 137.145 68.1069 136.582C68.9989 136.02 70.0359 135.739 71.2177 135.739C72.3995 135.739 73.4336 136.02 74.32 136.582C75.212 137.145 75.9052 137.935 76.3995 138.952C76.8995 139.969 77.1495 141.159 77.1495 142.523C77.1495 143.875 76.8995 145.057 76.3995 146.068C75.9052 147.08 75.212 147.866 74.32 148.429C73.4336 148.991 72.3995 149.273 71.2177 149.273ZM71.2177 147.466C72.1154 147.466 72.854 147.236 73.4336 146.776C74.0131 146.315 74.4421 145.71 74.7205 144.96C74.9989 144.21 75.1381 143.398 75.1381 142.523C75.1381 141.648 74.9989 140.832 74.7205 140.077C74.4421 139.321 74.0131 138.71 73.4336 138.244C72.854 137.778 72.1154 137.545 71.2177 137.545C70.32 137.545 69.5813 137.778 69.0018 138.244C68.4222 138.71 67.9933 139.321 67.7148 140.077C67.4364 140.832 67.2972 141.648 67.2972 142.523C67.2972 143.398 67.4364 144.21 67.7148 144.96C67.9933 145.71 68.4222 146.315 69.0018 146.776C69.5813 147.236 70.32 147.466 71.2177 147.466ZM80.2198 149V135.909H82.163V137.886H82.2994C82.538 137.239 82.9698 136.713 83.5948 136.31C84.2198 135.906 84.9244 135.705 85.7085 135.705C85.8562 135.705 86.0408 135.707 86.2624 135.713C86.484 135.719 86.6516 135.727 86.7653 135.739V137.784C86.6971 137.767 86.5408 137.741 86.2965 137.707C86.0579 137.668 85.805 137.648 85.538 137.648C84.9016 137.648 84.3335 137.781 83.8335 138.048C83.3391 138.31 82.9471 138.673 82.6573 139.139C82.3732 139.599 82.2312 140.125 82.2312 140.716V149H80.2198ZM94.2397 149.273C92.9783 149.273 91.8903 148.994 90.9755 148.438C90.0664 147.875 89.3647 147.091 88.8704 146.085C88.3817 145.074 88.1374 143.898 88.1374 142.557C88.1374 141.216 88.3817 140.034 88.8704 139.011C89.3647 137.983 90.0522 137.182 90.9329 136.608C91.8192 136.028 92.8533 135.739 94.0352 135.739C94.717 135.739 95.3903 135.852 96.055 136.08C96.7198 136.307 97.3249 136.676 97.8704 137.188C98.4158 137.693 98.8505 138.364 99.1744 139.199C99.4982 140.034 99.6602 141.062 99.6602 142.284V143.136H89.5692V141.398H97.6147C97.6147 140.659 97.467 140 97.1715 139.42C96.8817 138.841 96.467 138.384 95.9272 138.048C95.3931 137.713 94.7624 137.545 94.0352 137.545C93.234 137.545 92.5408 137.744 91.9556 138.142C91.3761 138.534 90.93 139.045 90.6175 139.676C90.305 140.307 90.1488 140.983 90.1488 141.705V142.864C90.1488 143.852 90.3192 144.69 90.6602 145.378C91.0067 146.06 91.4869 146.58 92.1005 146.938C92.7141 147.29 93.4272 147.466 94.2397 147.466C94.7681 147.466 95.2454 147.392 95.6715 147.244C96.1033 147.091 96.4755 146.864 96.788 146.562C97.1005 146.256 97.342 145.875 97.5124 145.42L99.4556 145.966C99.2511 146.625 98.9073 147.205 98.4244 147.705C97.9414 148.199 97.3448 148.585 96.6346 148.864C95.9244 149.136 95.1261 149.273 94.2397 149.273ZM108.038 149.273C106.811 149.273 105.754 148.983 104.868 148.403C103.981 147.824 103.299 147.026 102.822 146.009C102.345 144.991 102.106 143.83 102.106 142.523C102.106 141.193 102.35 140.02 102.839 139.003C103.333 137.98 104.021 137.182 104.902 136.608C105.788 136.028 106.822 135.739 108.004 135.739C108.924 135.739 109.754 135.909 110.493 136.25C111.231 136.591 111.836 137.068 112.308 137.682C112.779 138.295 113.072 139.011 113.186 139.83H111.174C111.021 139.233 110.68 138.705 110.152 138.244C109.629 137.778 108.924 137.545 108.038 137.545C107.254 137.545 106.566 137.75 105.975 138.159C105.39 138.562 104.933 139.134 104.603 139.872C104.279 140.605 104.118 141.466 104.118 142.455C104.118 143.466 104.277 144.347 104.595 145.097C104.919 145.847 105.373 146.429 105.958 146.844C106.549 147.259 107.243 147.466 108.038 147.466C108.561 147.466 109.035 147.375 109.461 147.193C109.887 147.011 110.248 146.75 110.544 146.409C110.839 146.068 111.049 145.659 111.174 145.182H113.186C113.072 145.955 112.791 146.651 112.342 147.27C111.899 147.884 111.311 148.372 110.578 148.736C109.85 149.094 109.004 149.273 108.038 149.273ZM119.978 149.307C119.149 149.307 118.396 149.151 117.72 148.838C117.044 148.52 116.507 148.062 116.109 147.466C115.711 146.864 115.512 146.136 115.512 145.284C115.512 144.534 115.66 143.926 115.956 143.46C116.251 142.989 116.646 142.619 117.14 142.352C117.635 142.085 118.18 141.886 118.777 141.756C119.379 141.619 119.984 141.511 120.592 141.432C121.387 141.33 122.032 141.253 122.527 141.202C123.027 141.145 123.39 141.051 123.618 140.92C123.85 140.79 123.967 140.562 123.967 140.239V140.17C123.967 139.33 123.737 138.676 123.277 138.21C122.822 137.744 122.132 137.511 121.206 137.511C120.245 137.511 119.493 137.722 118.947 138.142C118.402 138.562 118.018 139.011 117.797 139.489L115.887 138.807C116.228 138.011 116.683 137.392 117.251 136.949C117.825 136.5 118.45 136.187 119.126 136.011C119.808 135.83 120.478 135.739 121.137 135.739C121.558 135.739 122.041 135.79 122.586 135.892C123.137 135.989 123.669 136.19 124.18 136.497C124.697 136.804 125.126 137.267 125.467 137.886C125.808 138.506 125.978 139.335 125.978 140.375V149H123.967V147.227H123.865C123.728 147.511 123.501 147.815 123.183 148.139C122.865 148.463 122.441 148.739 121.913 148.966C121.385 149.193 120.74 149.307 119.978 149.307ZM120.285 147.5C121.081 147.5 121.751 147.344 122.297 147.031C122.848 146.719 123.262 146.315 123.541 145.821C123.825 145.327 123.967 144.807 123.967 144.261V142.42C123.882 142.523 123.694 142.616 123.404 142.702C123.12 142.781 122.791 142.852 122.416 142.915C122.047 142.972 121.686 143.023 121.333 143.068C120.987 143.108 120.706 143.142 120.49 143.17C119.967 143.239 119.478 143.349 119.024 143.503C118.575 143.651 118.211 143.875 117.933 144.176C117.66 144.472 117.524 144.875 117.524 145.386C117.524 146.085 117.782 146.614 118.299 146.972C118.822 147.324 119.484 147.5 120.285 147.5ZM138.922 138.841L137.115 139.352C137.002 139.051 136.834 138.759 136.613 138.474C136.397 138.185 136.101 137.946 135.726 137.759C135.351 137.571 134.871 137.477 134.286 137.477C133.485 137.477 132.817 137.662 132.283 138.031C131.755 138.395 131.49 138.858 131.49 139.42C131.49 139.92 131.672 140.315 132.036 140.605C132.4 140.895 132.968 141.136 133.74 141.33L135.684 141.807C136.854 142.091 137.726 142.526 138.3 143.111C138.874 143.69 139.161 144.437 139.161 145.352C139.161 146.102 138.945 146.773 138.513 147.364C138.087 147.955 137.49 148.42 136.723 148.761C135.956 149.102 135.064 149.273 134.047 149.273C132.712 149.273 131.607 148.983 130.732 148.403C129.857 147.824 129.303 146.977 129.07 145.864L130.979 145.386C131.161 146.091 131.505 146.619 132.01 146.972C132.522 147.324 133.189 147.5 134.013 147.5C134.951 147.5 135.695 147.301 136.246 146.903C136.803 146.5 137.081 146.017 137.081 145.455C137.081 145 136.922 144.619 136.604 144.312C136.286 144 135.797 143.767 135.138 143.614L132.956 143.102C131.757 142.818 130.877 142.378 130.314 141.781C129.757 141.179 129.479 140.426 129.479 139.523C129.479 138.784 129.686 138.131 130.101 137.562C130.522 136.994 131.093 136.548 131.814 136.224C132.542 135.901 133.365 135.739 134.286 135.739C135.581 135.739 136.598 136.023 137.337 136.591C138.081 137.159 138.61 137.909 138.922 138.841ZM147.882 135.909V137.614H141.098V135.909H147.882ZM143.075 132.773H145.086V145.25C145.086 145.818 145.169 146.244 145.333 146.528C145.504 146.807 145.72 146.994 145.981 147.091C146.248 147.182 146.529 147.227 146.825 147.227C147.047 147.227 147.228 147.216 147.37 147.193C147.512 147.165 147.626 147.142 147.711 147.125L148.12 148.932C147.984 148.983 147.794 149.034 147.549 149.085C147.305 149.142 146.995 149.17 146.62 149.17C146.052 149.17 145.495 149.048 144.95 148.804C144.41 148.56 143.961 148.188 143.603 147.688C143.251 147.188 143.075 146.557 143.075 145.795V132.773Z" fill="#3B82F6"/>
</g>
<defs>
<clipPath id="clip0_401_2">
<rect width="200" height="200" fill="white"/>
</clipPath>
</defs>
</svg>
